<svg xmlns="http://www.w3.org/2000/svg" xmlns:xlink="http://www.w3.org/1999/xlink" viewBox="0 0 760.52 290.96"><defs><style>.cls-1{fill:none;}.cls-2{fill:#fe006e;}.cls-3{clip-path:url(#clip-path);}.cls-4{font-size:48.56px;font-family:Roboto-Bold, Roboto;font-weight:700;}.cls-5{font-size:42.61px;font-family:Roboto-Light, Roboto;font-weight:300;}.cls-6{letter-spacing:-0.02em;}.cls-7{letter-spacing:0em;}.cls-8{letter-spacing:-0.01em;}.cls-9{letter-spacing:-0.01em;}.cls-10{letter-spacing:-0.01em;}</style><clipPath id="clip-path"><rect class="cls-1" x="48.56" y="22.55" width="265.13" height="210.59"/></clipPath></defs><g id="Logo_variantes" data-name="Logo variantes"><path class="cls-2" d="M226.32,22.55H135.94L85.6,126.13l88.32,141.16V139.38a14.24,14.24,0,1,1,14.41,0V267.29l88.33-141.16Z"/><polygon class="cls-2" points="187.63 268.41 188.33 268.41 188.33 267.29 187.63 268.41"/><polygon class="cls-2" points="174.63 268.41 173.93 267.29 173.93 268.41 174.63 268.41"/><g class="cls-3"><polygon points="238.44 239.3 230.15 233.66 302.05 127.98 246.58 19.85 255.5 15.27 313.69 128.7 238.44 239.3"/><polygon points="123.81 239.3 48.56 128.7 106.76 15.27 115.68 19.85 60.21 127.98 132.11 233.66 123.81 239.3"/></g><text class="cls-4" transform="translate(349.3 98.39)">Camila Pletscher</text><text class="cls-5" transform="translate(351.34 153.67)">G<tspan class="cls-6" x="29.13" y="0">r</tspan><tspan class="cls-7" x="42.63" y="0">aphic designer &amp;</tspan><tspan class="cls-8" x="0" y="51.13">F</tspan><tspan class="cls-9" x="23.43" y="51.13">r</tspan><tspan x="37.35" y="51.13">ont end d</tspan><tspan class="cls-10" x="211.8" y="51.13">ev</tspan><tspan x="253.76" y="51.13">eloper</tspan></text></g></svg>